<svg xmlns="http://www.w3.org/2000/svg" viewBox="0 0 15 15" fill="none">
<path d="M2.27805 4.21009C1.18451 4.21009 0.298008 3.32358 0.298008 2.23004C0.298008 1.13651 1.18451 0.25 2.27805 0.25C3.37159 0.25 4.2581 1.13651 4.2581 2.23004C4.2581 3.32358 3.37164 4.21009 2.27805 4.21009Z" fill="black"/>
<path d="M3.8098 14.2604C3.8098 14.5308 3.5906 14.75 3.32017 14.75H1.23593C0.965505 14.75 0.746301 14.5308 0.746301 14.2604V5.52332C0.746301 5.25289 0.965505 5.03369 1.23593 5.03369H3.32017C3.5906 5.03369 3.8098 5.25289 3.8098 5.52332V14.2604Z" fill="black"/>
<path d="M14.702 14.2998C14.702 14.5484 14.5004 14.75 14.2518 14.75H12.0153C11.7666 14.75 11.5651 14.5484 11.5651 14.2998V10.2016C11.5651 9.59028 11.7444 7.52264 9.96739 7.52264C8.58901 7.52264 8.30943 8.93788 8.25329 9.57299V14.2998C8.25329 14.5484 8.05176 14.75 7.8031 14.75H5.63998C5.39136 14.75 5.18979 14.5484 5.18979 14.2998V5.48388C5.18979 5.23526 5.39136 5.03369 5.63998 5.03369H7.8031C8.05171 5.03369 8.25329 5.23526 8.25329 5.48388V6.24612C8.76439 5.4791 9.52396 4.88708 11.1412 4.88708C14.7023 4.88708 14.7021 8.1953 14.702 10.04V14.2998Z" fill="black"/>
</svg>
