<svg viewBox="0 0 16 14" fill="none" xmlns="http://www.w3.org/2000/svg">
  <path d="M1.48805 6.13021C5.54141 4.36422 8.24429 3.19997 9.59669 2.63747C13.458 1.0314 14.2604 0.752405 14.7834 0.743192C14.8984 0.741166 15.1556 0.769672 15.3222 0.904848C15.4628 1.01899 15.5015 1.17317 15.52 1.28139C15.5386 1.38961 15.5616 1.63613 15.5433 1.82876C15.334 4.02734 14.4286 9.36274 13.968 11.8252C13.7731 12.8672 13.3893 13.2165 13.0178 13.2507C12.2103 13.325 11.5972 12.7171 10.8151 12.2044C9.59139 11.4023 8.90005 10.9029 7.71218 10.1201C6.3394 9.21547 7.22932 8.71826 8.01166 7.90568C8.21641 7.69303 11.774 4.4571 11.8429 4.16355C11.8515 4.12683 11.8595 3.98998 11.7782 3.91772C11.6969 3.84546 11.5769 3.87017 11.4903 3.88982C11.3676 3.91768 9.41261 5.20984 5.62542 7.7663C5.07051 8.14734 4.56789 8.333 4.11756 8.32327C3.62111 8.31254 2.66613 8.04256 1.95621 7.8118C1.08545 7.52875 0.393395 7.3791 0.453658 6.8984C0.485046 6.64802 0.829842 6.39195 1.48805 6.13021Z" fill="black"></path>
</svg>
