<svg xmlns="http://www.w3.org/2000/svg" viewBox="0 0 20 14" fill="none">
<path d="M9.98958 -0.0547485C9.99516 -0.0547484 16.2243 -0.0545534 17.7698 0.375593C18.6406 0.608399 19.2953 1.28565 19.5251 2.16043C19.95 3.71248 19.95 6.9859 19.95 6.9859C19.95 6.99074 19.9497 10.2816 19.5251 11.8466C19.2953 12.7002 18.6406 13.3916 17.7698 13.6315C16.2243 14.0546 9.99516 14.0547 9.98958 14.0547C9.98958 14.0547 3.76952 14.0547 2.23016 13.6315C1.37343 13.3916 0.704744 12.7002 0.460956 11.8466C0.0503041 10.2816 0.0500004 6.99074 0.0500002 6.9859C0.0500002 6.9859 0.0500008 3.71248 0.460956 2.16043C0.704745 1.28565 1.37343 0.608399 2.23016 0.375593C3.7695 -0.0547449 9.98958 -0.0547485 9.98958 -0.0547485ZM7.94139 9.99826L13.0879 7L7.94139 4.00173V9.99826Z" fill="black"/>
</svg>
